<mxfile host="Electron" modified="2024-06-06T15:00:41.378Z" agent="Mozilla/5.0 (Windows NT 10.0; Win64; x64) AppleWebKit/537.36 (KHTML, like Gecko) draw.io/24.4.13 Chrome/124.0.6367.207 Electron/30.0.6 Safari/537.36" etag="LWXumpJ78YgiviTSQ-W9" version="24.4.13" type="device">
  <diagram id="20fFJ4i9ik2XWMhE9_u6" name="Page-1">
    <mxGraphModel dx="1733" dy="-1169" grid="1" gridSize="10" guides="1" tooltips="1" connect="1" arrows="1" fold="1" page="1" pageScale="1" pageWidth="827" pageHeight="1169" math="0" shadow="0">
      <root>
        <mxCell id="0" />
        <mxCell id="1" parent="0" />
        <mxCell id="_5y7-mnvLYEZBGS-u_jI-1" value="&lt;font style=&quot;font-size: 48px;&quot;&gt;SI&lt;/font&gt;" style="rounded=0;whiteSpace=wrap;html=1;fontSize=48;fillColor=#d5e8d4;strokeColor=#82b366;fontStyle=0;fontFamily=Helvetica;" parent="1" vertex="1">
          <mxGeometry x="960" y="2600" width="160" height="80" as="geometry" />
        </mxCell>
        <mxCell id="_5y7-mnvLYEZBGS-u_jI-2" value="&lt;span style=&quot;font-size: 48px;&quot;&gt;PSI&lt;/span&gt;" style="rounded=0;whiteSpace=wrap;html=1;fontSize=48;fillColor=#d5e8d4;strokeColor=#82b366;fontStyle=0;fontFamily=Helvetica;" parent="1" vertex="1">
          <mxGeometry x="720" y="2520" width="160" height="80" as="geometry" />
        </mxCell>
        <mxCell id="_5y7-mnvLYEZBGS-u_jI-3" value="&lt;span style=&quot;font-size: 48px;&quot;&gt;RA&lt;/span&gt;" style="rounded=0;whiteSpace=wrap;html=1;fontSize=48;fillColor=#d5e8d4;strokeColor=#82b366;fontStyle=0;fontFamily=Helvetica;" parent="1" vertex="1">
          <mxGeometry x="240" y="2520" width="160" height="80" as="geometry" />
        </mxCell>
        <mxCell id="_5y7-mnvLYEZBGS-u_jI-4" value="&lt;span style=&quot;font-size: 48px;&quot;&gt;&lt;font color=&quot;#b3b3b3&quot; style=&quot;font-size: 48px;&quot;&gt;RC&lt;/font&gt;&lt;/span&gt;" style="rounded=0;whiteSpace=wrap;html=1;strokeColor=#B3B3B3;fontSize=48;fontStyle=0;fontFamily=Helvetica;" parent="1" vertex="1">
          <mxGeometry y="2520" width="160" height="80" as="geometry" />
        </mxCell>
        <mxCell id="_5y7-mnvLYEZBGS-u_jI-5" value="&lt;span style=&quot;font-size: 48px;&quot;&gt;UA&lt;/span&gt;" style="rounded=0;whiteSpace=wrap;html=1;fontSize=48;fillColor=#d5e8d4;strokeColor=#82b366;fontStyle=0;fontFamily=Helvetica;" parent="1" vertex="1">
          <mxGeometry x="480" y="2520" width="160" height="80" as="geometry" />
        </mxCell>
        <mxCell id="_5y7-mnvLYEZBGS-u_jI-6" value="" style="endArrow=classic;html=1;exitX=1;exitY=0.5;exitDx=0;exitDy=0;entryX=0;entryY=0.5;entryDx=0;entryDy=0;strokeWidth=3;fontSize=48;fontStyle=0;fontFamily=Helvetica;" parent="1" source="_5y7-mnvLYEZBGS-u_jI-2" target="_5y7-mnvLYEZBGS-u_jI-1" edge="1">
          <mxGeometry width="50" height="50" relative="1" as="geometry">
            <mxPoint x="860" y="1960" as="sourcePoint" />
            <mxPoint x="860" y="1920" as="targetPoint" />
          </mxGeometry>
        </mxCell>
        <mxCell id="_5y7-mnvLYEZBGS-u_jI-7" value="" style="endArrow=classic;html=1;entryX=0;entryY=0.5;entryDx=0;entryDy=0;exitX=1;exitY=0.5;exitDx=0;exitDy=0;strokeWidth=3;strokeColor=#000000;fontSize=48;fontStyle=0;fontFamily=Helvetica;" parent="1" source="_5y7-mnvLYEZBGS-u_jI-4" target="_5y7-mnvLYEZBGS-u_jI-3" edge="1">
          <mxGeometry width="50" height="50" relative="1" as="geometry">
            <mxPoint x="-49" y="2390" as="sourcePoint" />
            <mxPoint x="-49" y="2350" as="targetPoint" />
          </mxGeometry>
        </mxCell>
        <mxCell id="_5y7-mnvLYEZBGS-u_jI-8" value="" style="endArrow=classic;html=1;entryX=0;entryY=0.5;entryDx=0;entryDy=0;exitX=1;exitY=0.5;exitDx=0;exitDy=0;strokeWidth=3;fontSize=48;fontStyle=0;fontFamily=Helvetica;" parent="1" source="_5y7-mnvLYEZBGS-u_jI-3" target="_5y7-mnvLYEZBGS-u_jI-5" edge="1">
          <mxGeometry width="50" height="50" relative="1" as="geometry">
            <mxPoint x="890" y="2390" as="sourcePoint" />
            <mxPoint x="890" y="2350" as="targetPoint" />
          </mxGeometry>
        </mxCell>
        <mxCell id="_5y7-mnvLYEZBGS-u_jI-9" value="" style="endArrow=classic;html=1;exitX=1;exitY=0.5;exitDx=0;exitDy=0;entryX=0;entryY=0.5;entryDx=0;entryDy=0;strokeWidth=3;fontSize=48;fontStyle=0;fontFamily=Helvetica;" parent="1" source="_5y7-mnvLYEZBGS-u_jI-5" target="_5y7-mnvLYEZBGS-u_jI-2" edge="1">
          <mxGeometry width="50" height="50" relative="1" as="geometry">
            <mxPoint x="900" y="2400" as="sourcePoint" />
            <mxPoint x="780" y="2180" as="targetPoint" />
          </mxGeometry>
        </mxCell>
        <mxCell id="_5y7-mnvLYEZBGS-u_jI-10" value="&lt;font style=&quot;font-size: 48px;&quot;&gt;&lt;font style=&quot;font-size: 48px;&quot;&gt;TCCv&lt;/font&gt;&lt;br style=&quot;font-size: 48px;&quot;&gt;&lt;/font&gt;" style="rounded=0;whiteSpace=wrap;html=1;fontSize=48;fillColor=#d5e8d4;strokeColor=#82b366;fontStyle=0;fontFamily=Helvetica;" parent="1" vertex="1">
          <mxGeometry x="480" y="2680" width="160" height="80" as="geometry" />
        </mxCell>
        <mxCell id="_5y7-mnvLYEZBGS-u_jI-11" value="" style="endArrow=classic;html=1;exitX=0.5;exitY=1;exitDx=0;exitDy=0;strokeWidth=3;fontSize=48;fontStyle=0;fontFamily=Helvetica;" parent="1" source="_5y7-mnvLYEZBGS-u_jI-3" target="_5y7-mnvLYEZBGS-u_jI-18" edge="1">
          <mxGeometry width="50" height="50" relative="1" as="geometry">
            <mxPoint x="410" y="2650" as="sourcePoint" />
            <mxPoint x="490" y="2570" as="targetPoint" />
          </mxGeometry>
        </mxCell>
        <mxCell id="_5y7-mnvLYEZBGS-u_jI-12" value="" style="endArrow=classic;html=1;exitX=1;exitY=0.5;exitDx=0;exitDy=0;entryX=0;entryY=0.5;entryDx=0;entryDy=0;strokeWidth=3;fontSize=48;fontStyle=0;fontFamily=Helvetica;" parent="1" source="_5y7-mnvLYEZBGS-u_jI-10" target="_5y7-mnvLYEZBGS-u_jI-2" edge="1">
          <mxGeometry width="50" height="50" relative="1" as="geometry">
            <mxPoint x="650" y="2570" as="sourcePoint" />
            <mxPoint x="680" y="2650" as="targetPoint" />
          </mxGeometry>
        </mxCell>
        <mxCell id="_5y7-mnvLYEZBGS-u_jI-13" value="&lt;font style=&quot;font-size: 48px;&quot;&gt;SER&lt;/font&gt;" style="rounded=0;whiteSpace=wrap;html=1;fontSize=48;fillColor=#d5e8d4;strokeColor=#82b366;fontStyle=0;fontFamily=Helvetica;" parent="1" vertex="1">
          <mxGeometry x="1200" y="2600" width="160" height="80" as="geometry" />
        </mxCell>
        <mxCell id="_5y7-mnvLYEZBGS-u_jI-14" value="" style="endArrow=classic;html=1;exitX=1;exitY=0.5;exitDx=0;exitDy=0;entryX=0;entryY=0.5;entryDx=0;entryDy=0;strokeWidth=3;fontSize=48;fontStyle=0;fontFamily=Helvetica;" parent="1" source="_5y7-mnvLYEZBGS-u_jI-1" target="_5y7-mnvLYEZBGS-u_jI-13" edge="1">
          <mxGeometry width="50" height="50" relative="1" as="geometry">
            <mxPoint x="890" y="2650" as="sourcePoint" />
            <mxPoint x="970" y="2650" as="targetPoint" />
          </mxGeometry>
        </mxCell>
        <mxCell id="_5y7-mnvLYEZBGS-u_jI-15" value="&lt;span style=&quot;font-size: 48px;&quot;&gt;PC&lt;/span&gt;" style="rounded=0;whiteSpace=wrap;html=1;fontSize=48;fillColor=#d5e8d4;strokeColor=#82b366;fontStyle=0;fontFamily=Helvetica;" parent="1" vertex="1">
          <mxGeometry x="720" y="2680" width="160" height="80" as="geometry" />
        </mxCell>
        <mxCell id="_5y7-mnvLYEZBGS-u_jI-16" value="" style="endArrow=classic;html=1;entryX=0;entryY=0.5;entryDx=0;entryDy=0;exitX=1;exitY=0.5;exitDx=0;exitDy=0;strokeWidth=3;fontSize=48;fontStyle=0;fontFamily=Helvetica;" parent="1" source="_5y7-mnvLYEZBGS-u_jI-10" target="_5y7-mnvLYEZBGS-u_jI-15" edge="1">
          <mxGeometry width="50" height="50" relative="1" as="geometry">
            <mxPoint x="410" y="2570" as="sourcePoint" />
            <mxPoint x="490" y="2730" as="targetPoint" />
          </mxGeometry>
        </mxCell>
        <mxCell id="_5y7-mnvLYEZBGS-u_jI-17" value="" style="endArrow=classic;html=1;entryX=0;entryY=0.5;entryDx=0;entryDy=0;exitX=1;exitY=0.5;exitDx=0;exitDy=0;strokeWidth=3;fontSize=48;fontStyle=0;fontFamily=Helvetica;" parent="1" source="_5y7-mnvLYEZBGS-u_jI-15" target="_5y7-mnvLYEZBGS-u_jI-1" edge="1">
          <mxGeometry width="50" height="50" relative="1" as="geometry">
            <mxPoint x="420" y="2580" as="sourcePoint" />
            <mxPoint x="500" y="2740" as="targetPoint" />
          </mxGeometry>
        </mxCell>
        <mxCell id="_5y7-mnvLYEZBGS-u_jI-18" value="&lt;font style=&quot;font-size: 48px;&quot;&gt;&lt;font color=&quot;#b3b3b3&quot; style=&quot;font-size: 48px;&quot;&gt;TCC&lt;/font&gt;&lt;br style=&quot;font-size: 48px;&quot;&gt;&lt;/font&gt;" style="rounded=0;whiteSpace=wrap;html=1;strokeColor=#B3B3B3;fontSize=48;fontStyle=0;fontFamily=Helvetica;" parent="1" vertex="1">
          <mxGeometry x="240" y="2680" width="160" height="80" as="geometry" />
        </mxCell>
        <mxCell id="_5y7-mnvLYEZBGS-u_jI-19" value="" style="endArrow=classic;html=1;entryX=0;entryY=0.5;entryDx=0;entryDy=0;exitX=1;exitY=0.5;exitDx=0;exitDy=0;strokeWidth=3;fontSize=48;fontStyle=0;fontFamily=Helvetica;" parent="1" source="_5y7-mnvLYEZBGS-u_jI-18" target="_5y7-mnvLYEZBGS-u_jI-10" edge="1">
          <mxGeometry width="50" height="50" relative="1" as="geometry">
            <mxPoint x="410" y="2570" as="sourcePoint" />
            <mxPoint x="490" y="2730" as="targetPoint" />
          </mxGeometry>
        </mxCell>
        <mxCell id="IHxK1Wmi34h4mt-VmajW-5" value="&lt;font style=&quot;font-size: 48px;&quot;&gt;SSER&lt;/font&gt;" style="rounded=0;whiteSpace=wrap;html=1;fontSize=48;fillColor=#d5e8d4;strokeColor=#82b366;fontStyle=0;fontFamily=Helvetica;" vertex="1" parent="1">
          <mxGeometry x="1440" y="2600" width="160" height="80" as="geometry" />
        </mxCell>
        <mxCell id="IHxK1Wmi34h4mt-VmajW-6" value="" style="endArrow=classic;html=1;exitX=1;exitY=0.5;exitDx=0;exitDy=0;entryX=0;entryY=0.5;entryDx=0;entryDy=0;strokeWidth=3;fontSize=48;fontStyle=0;fontFamily=Helvetica;" edge="1" parent="1" target="IHxK1Wmi34h4mt-VmajW-5" source="_5y7-mnvLYEZBGS-u_jI-13">
          <mxGeometry width="50" height="50" relative="1" as="geometry">
            <mxPoint x="1360" y="2640" as="sourcePoint" />
            <mxPoint x="1210" y="2650" as="targetPoint" />
          </mxGeometry>
        </mxCell>
      </root>
    </mxGraphModel>
  </diagram>
</mxfile>
